<?xml version="1.0" encoding="UTF-8"?>
<!DOCTYPE svg
PUBLIC "-//W3C//DTD SVG 1.1//EN"
       "http://www.w3.org/Graphics/SVG/1.1/DTD/svg11.dtd">
<svg viewBox="420 1 1407 718" width="987px" height="717px" xmlns="http://www.w3.org/2000/svg" version="1.1">
   <line x1="1109" y1="477" x2="1119" y2="477" style="stroke:#0bf;stroke-width:1;"/>
   <line x1="1304" y1="249" x2="1314" y2="249" style="stroke:#0bf;stroke-width:1;"/>
   <line x1="1119" y1="477" x2="1304" y2="249" style="stroke:#0bf;stroke-width:1;"/>
   <line x1="1116.5" y1="477" x2="1112.9644660941" y2="480.53553390593" style="stroke:#0bf;stroke-width:2;"/>
   <line x1="1116.5" y1="477" x2="1112.9644660941" y2="473.46446609407" style="stroke:#0bf;stroke-width:2;"/>
   <line x1="1309" y1="249" x2="1305.4644660941" y2="252.53553390593" style="stroke:#0bf;stroke-width:2;"/>
   <line x1="1309" y1="249" x2="1305.4644660941" y2="245.46446609407" style="stroke:#0bf;stroke-width:2;"/>
   <line x1="1028" y1="517" x2="1018" y2="517" style="stroke:#cb0;stroke-width:1;"/>
   <line x1="505" y1="536" x2="495" y2="536" style="stroke:#cb0;stroke-width:1;"/>
   <line x1="1018" y1="517" x2="505" y2="536" style="stroke:#cb0;stroke-width:1;"/>
   <line x1="1020.5" y1="517" x2="1024.0355339059" y2="520.53553390593" style="stroke:#cb0;stroke-width:2;"/>
   <line x1="1020.5" y1="517" x2="1024.0355339059" y2="513.46446609407" style="stroke:#cb0;stroke-width:2;"/>
   <line x1="500" y1="536" x2="503.53553390593" y2="539.53553390593" style="stroke:#cb0;stroke-width:2;"/>
   <line x1="500" y1="536" x2="503.53553390593" y2="532.46446609407" style="stroke:#cb0;stroke-width:2;"/>
   <line x1="705" y1="233" x2="695" y2="233" style="stroke:#0b0;stroke-width:1;"/>
   <line x1="530" y1="46" x2="520" y2="46" style="stroke:#0b0;stroke-width:1;"/>
   <line x1="695" y1="233" x2="530" y2="46" style="stroke:#0b0;stroke-width:1;"/>
   <line x1="697.5" y1="233" x2="701.03553390593" y2="236.53553390593" style="stroke:#0b0;stroke-width:2;"/>
   <line x1="697.5" y1="233" x2="701.03553390593" y2="229.46446609407" style="stroke:#0b0;stroke-width:2;"/>
   <line x1="525" y1="46" x2="528.53553390593" y2="49.535533905933" style="stroke:#0b0;stroke-width:2;"/>
   <line x1="525" y1="46" x2="528.53553390593" y2="42.464466094067" style="stroke:#0b0;stroke-width:2;"/>
   <line x1="1082" y1="83" x2="1092" y2="83" style="stroke:#cb0;stroke-width:1;"/>
   <line x1="1304" y1="249" x2="1314" y2="249" style="stroke:#cb0;stroke-width:1;"/>
   <line x1="1092" y1="83" x2="1304" y2="249" style="stroke:#cb0;stroke-width:1;"/>
   <line x1="1089.5" y1="83" x2="1085.9644660941" y2="86.535533905933" style="stroke:#cb0;stroke-width:2;"/>
   <line x1="1089.5" y1="83" x2="1085.9644660941" y2="79.464466094067" style="stroke:#cb0;stroke-width:2;"/>
   <line x1="1309" y1="249" x2="1305.4644660941" y2="252.53553390593" style="stroke:#cb0;stroke-width:2;"/>
   <line x1="1309" y1="249" x2="1305.4644660941" y2="245.46446609407" style="stroke:#cb0;stroke-width:2;"/>
   <rect width="81" height="20" x="1028" y="427" style="fill:#007;stroke:black;"/>
   <text width="81" height="20" x="1033" y="441" style="fill:#fff;" font-family="Arial" font-size="16px"> cart</text>
   <rect width="81" height="20" x="1028" y="447" style="fill:#aea;stroke:black;"/>
   <text width="81" height="20" x="1033" y="461" style="fill:black;" font-family="Arial" font-size="16px">id</text>
   <rect width="81" height="20" x="1028" y="467" style="fill:none;stroke:black;"/>
   <text width="81" height="20" x="1033" y="481" style="fill:black;" font-family="Arial" font-size="16px">user_id</text>
   <rect width="81" height="20" x="1028" y="487" style="fill:none;stroke:black;"/>
   <text width="81" height="20" x="1033" y="501" style="fill:black;" font-family="Arial" font-size="16px">email</text>
   <rect width="81" height="20" x="1028" y="507" style="fill:none;stroke:black;"/>
   <text width="81" height="20" x="1033" y="521" style="fill:black;" font-family="Arial" font-size="16px">book_id</text>
   <rect width="81" height="20" x="1028" y="527" style="fill:none;stroke:black;"/>
   <text width="81" height="20" x="1033" y="541" style="fill:black;" font-family="Arial" font-size="16px">quantity</text>
   <rect width="81" height="20" x="1028" y="547" style="fill:none;stroke:black;"/>
   <text width="81" height="20" x="1033" y="561" style="fill:black;" font-family="Arial" font-size="16px">created_at</text>
   <rect width="75" height="20" x="618" y="603" style="fill:#007;stroke:black;"/>
   <text width="75" height="20" x="623" y="617" style="fill:#fff;" font-family="Arial" font-size="16px"> contact</text>
   <rect width="75" height="20" x="618" y="623" style="fill:#aea;stroke:black;"/>
   <text width="75" height="20" x="623" y="637" style="fill:black;" font-family="Arial" font-size="16px">id</text>
   <rect width="75" height="20" x="618" y="643" style="fill:none;stroke:black;"/>
   <text width="75" height="20" x="623" y="657" style="fill:black;" font-family="Arial" font-size="16px">name</text>
   <rect width="75" height="20" x="618" y="663" style="fill:none;stroke:black;"/>
   <text width="75" height="20" x="623" y="677" style="fill:black;" font-family="Arial" font-size="16px">email</text>
   <rect width="75" height="20" x="618" y="683" style="fill:none;stroke:black;"/>
   <text width="75" height="20" x="623" y="697" style="fill:black;" font-family="Arial" font-size="16px">message</text>
   <rect width="77" height="20" x="443" y="16" style="fill:#007;stroke:black;"/>
   <text width="77" height="20" x="448" y="30" style="fill:#fff;" font-family="Arial" font-size="16px"> events</text>
   <rect width="77" height="20" x="443" y="36" style="fill:#aea;stroke:black;"/>
   <text width="77" height="20" x="448" y="50" style="fill:black;" font-family="Arial" font-size="16px">id</text>
   <rect width="77" height="20" x="443" y="56" style="fill:none;stroke:black;"/>
   <text width="77" height="20" x="448" y="70" style="fill:black;" font-family="Arial" font-size="16px">title</text>
   <rect width="77" height="20" x="443" y="76" style="fill:none;stroke:black;"/>
   <text width="77" height="20" x="448" y="90" style="fill:black;" font-family="Arial" font-size="16px">content</text>
   <rect width="77" height="20" x="443" y="96" style="fill:none;stroke:black;"/>
   <text width="77" height="20" x="448" y="110" style="fill:black;" font-family="Arial" font-size="16px">start_date</text>
   <rect width="77" height="20" x="443" y="116" style="fill:none;stroke:black;"/>
   <text width="77" height="20" x="448" y="130" style="fill:black;" font-family="Arial" font-size="16px">end_date</text>
   <rect width="77" height="20" x="443" y="136" style="fill:none;stroke:black;"/>
   <text width="77" height="20" x="448" y="150" style="fill:black;" font-family="Arial" font-size="16px">image</text>
   <rect width="140" height="20" x="705" y="123" style="fill:#007;stroke:black;"/>
   <text width="140" height="20" x="710" y="137" style="fill:#fff;" font-family="Arial" font-size="16px"> event_registrations</text>
   <rect width="140" height="20" x="705" y="143" style="fill:#aea;stroke:black;"/>
   <text width="140" height="20" x="710" y="157" style="fill:black;" font-family="Arial" font-size="16px">id</text>
   <rect width="140" height="20" x="705" y="163" style="fill:none;stroke:black;"/>
   <text width="140" height="20" x="710" y="177" style="fill:black;" font-family="Arial" font-size="16px">name</text>
   <rect width="140" height="20" x="705" y="183" style="fill:none;stroke:black;"/>
   <text width="140" height="20" x="710" y="197" style="fill:black;" font-family="Arial" font-size="16px">email</text>
   <rect width="140" height="20" x="705" y="203" style="fill:none;stroke:black;"/>
   <text width="140" height="20" x="710" y="217" style="fill:black;" font-family="Arial" font-size="16px">phone</text>
   <rect width="140" height="20" x="705" y="223" style="fill:none;stroke:black;"/>
   <text width="140" height="20" x="710" y="237" style="fill:black;" font-family="Arial" font-size="16px">event_id</text>
   <rect width="140" height="20" x="705" y="243" style="fill:none;stroke:black;"/>
   <text width="140" height="20" x="710" y="257" style="fill:black;" font-family="Arial" font-size="16px">registration_date</text>
   <rect width="53" height="20" x="442" y="506" style="fill:#007;stroke:black;"/>
   <text width="53" height="20" x="447" y="520" style="fill:#fff;" font-family="Arial" font-size="16px"> library</text>
   <rect width="53" height="20" x="442" y="526" style="fill:#aea;stroke:black;"/>
   <text width="53" height="20" x="447" y="540" style="fill:black;" font-family="Arial" font-size="16px">id</text>
   <rect width="53" height="20" x="442" y="546" style="fill:none;stroke:black;"/>
   <text width="53" height="20" x="447" y="560" style="fill:black;" font-family="Arial" font-size="16px">title</text>
   <rect width="53" height="20" x="442" y="566" style="fill:none;stroke:black;"/>
   <text width="53" height="20" x="447" y="580" style="fill:black;" font-family="Arial" font-size="16px">price</text>
   <rect width="53" height="20" x="442" y="586" style="fill:none;stroke:black;"/>
   <text width="53" height="20" x="447" y="600" style="fill:black;" font-family="Arial" font-size="16px">status</text>
   <rect width="53" height="20" x="442" y="606" style="fill:none;stroke:black;"/>
   <text width="53" height="20" x="447" y="620" style="fill:black;" font-family="Arial" font-size="16px">image</text>
   <rect width="71" height="20" x="437" y="184" style="fill:#007;stroke:black;"/>
   <text width="71" height="20" x="442" y="198" style="fill:#fff;" font-family="Arial" font-size="16px"> posts</text>
   <rect width="71" height="20" x="437" y="204" style="fill:#aea;stroke:black;"/>
   <text width="71" height="20" x="442" y="218" style="fill:black;" font-family="Arial" font-size="16px">id</text>
   <rect width="71" height="20" x="437" y="224" style="fill:none;stroke:black;"/>
   <text width="71" height="20" x="442" y="238" style="fill:black;" font-family="Arial" font-size="16px">title</text>
   <rect width="71" height="20" x="437" y="244" style="fill:none;stroke:black;"/>
   <text width="71" height="20" x="442" y="258" style="fill:black;" font-family="Arial" font-size="16px">content</text>
   <rect width="71" height="20" x="437" y="264" style="fill:none;stroke:black;"/>
   <text width="71" height="20" x="442" y="278" style="fill:black;" font-family="Arial" font-size="16px">image</text>
   <rect width="71" height="20" x="437" y="284" style="fill:none;stroke:black;"/>
   <text width="71" height="20" x="442" y="298" style="fill:black;" font-family="Arial" font-size="16px">category</text>
   <rect width="71" height="20" x="437" y="304" style="fill:none;stroke:black;"/>
   <text width="71" height="20" x="442" y="318" style="fill:black;" font-family="Arial" font-size="16px">date</text>
   <rect width="71" height="20" x="435" y="352" style="fill:#007;stroke:black;"/>
   <text width="71" height="20" x="440" y="366" style="fill:#fff;" font-family="Arial" font-size="16px"> staff</text>
   <rect width="71" height="20" x="435" y="372" style="fill:#aea;stroke:black;"/>
   <text width="71" height="20" x="440" y="386" style="fill:black;" font-family="Arial" font-size="16px">id</text>
   <rect width="71" height="20" x="435" y="392" style="fill:none;stroke:black;"/>
   <text width="71" height="20" x="440" y="406" style="fill:black;" font-family="Arial" font-size="16px">name</text>
   <rect width="71" height="20" x="435" y="412" style="fill:none;stroke:black;"/>
   <text width="71" height="20" x="440" y="426" style="fill:black;" font-family="Arial" font-size="16px">category</text>
   <rect width="71" height="20" x="435" y="432" style="fill:none;stroke:black;"/>
   <text width="71" height="20" x="440" y="446" style="fill:black;" font-family="Arial" font-size="16px">image</text>
   <rect width="71" height="20" x="435" y="452" style="fill:none;stroke:black;"/>
   <text width="71" height="20" x="440" y="466" style="fill:black;" font-family="Arial" font-size="16px">cvLink</text>
   <rect width="91" height="20" x="991" y="33" style="fill:#007;stroke:black;"/>
   <text width="91" height="20" x="996" y="47" style="fill:#fff;" font-family="Arial" font-size="16px"> testimonials</text>
   <rect width="91" height="20" x="991" y="53" style="fill:#aea;stroke:black;"/>
   <text width="91" height="20" x="996" y="67" style="fill:black;" font-family="Arial" font-size="16px">id</text>
   <rect width="91" height="20" x="991" y="73" style="fill:none;stroke:black;"/>
   <text width="91" height="20" x="996" y="87" style="fill:black;" font-family="Arial" font-size="16px">user_id</text>
   <rect width="91" height="20" x="991" y="93" style="fill:none;stroke:black;"/>
   <text width="91" height="20" x="996" y="107" style="fill:black;" font-family="Arial" font-size="16px">user_email</text>
   <rect width="91" height="20" x="991" y="113" style="fill:none;stroke:black;"/>
   <text width="91" height="20" x="996" y="127" style="fill:black;" font-family="Arial" font-size="16px">content</text>
   <rect width="91" height="20" x="991" y="133" style="fill:none;stroke:black;"/>
   <text width="91" height="20" x="996" y="147" style="fill:black;" font-family="Arial" font-size="16px">rating</text>
   <rect width="78" height="20" x="1314" y="219" style="fill:#007;stroke:black;"/>
   <text width="78" height="20" x="1319" y="233" style="fill:#fff;" font-family="Arial" font-size="16px"> users</text>
   <rect width="78" height="20" x="1314" y="239" style="fill:#aea;stroke:black;"/>
   <text width="78" height="20" x="1319" y="253" style="fill:black;" font-family="Arial" font-size="16px">id</text>
   <rect width="78" height="20" x="1314" y="259" style="fill:none;stroke:black;"/>
   <text width="78" height="20" x="1319" y="273" style="fill:black;" font-family="Arial" font-size="16px">firstName</text>
   <rect width="78" height="20" x="1314" y="279" style="fill:none;stroke:black;"/>
   <text width="78" height="20" x="1319" y="293" style="fill:black;" font-family="Arial" font-size="16px">lastName</text>
   <rect width="78" height="20" x="1314" y="299" style="fill:none;stroke:black;"/>
   <text width="78" height="20" x="1319" y="313" style="fill:black;" font-family="Arial" font-size="16px">email</text>
   <rect width="78" height="20" x="1314" y="319" style="fill:none;stroke:black;"/>
   <text width="78" height="20" x="1319" y="333" style="fill:black;" font-family="Arial" font-size="16px">password</text>
   <rect width="78" height="20" x="1314" y="339" style="fill:none;stroke:black;"/>
   <text width="78" height="20" x="1319" y="353" style="fill:black;" font-family="Arial" font-size="16px">grade</text>
   <rect width="78" height="20" x="1314" y="359" style="fill:none;stroke:black;"/>
   <text width="78" height="20" x="1319" y="373" style="fill:black;" font-family="Arial" font-size="16px">image</text>
   <rect width="78" height="20" x="1314" y="379" style="fill:none;stroke:black;"/>
   <text width="78" height="20" x="1319" y="393" style="fill:black;" font-family="Arial" font-size="16px">role</text>
</svg>
